<svg xmlns="http://www.w3.org/2000/svg" xmlns:xlink="http://www.w3.org/1999/xlink" x="0" y="0" width="662" height="302" style="
        width:662px;
        height:302px;
        background: #FFF;
        fill: none;
">
        <svg xmlns="http://www.w3.org/2000/svg" class="role-diagram-draw-area"><g class="shapes-region" style="stroke: black; fill: none;"><g class="composite-shape"><path class="real" d=" M185.14,94.36 C185.14,68.12 206.41,46.86 232.64,46.86 C258.88,46.86 280.14,68.12 280.14,94.36 C280.14,120.59 258.88,141.86 232.64,141.86 C206.41,141.86 185.14,120.59 185.14,94.36 Z" style="stroke-width: 1; stroke: rgb(0, 0, 0); fill: rgb(155, 155, 155); fill-opacity: 1;"/></g><g class="composite-shape"><path class="real" d=" M100,26.43 L564.71,26.43 L564.71,281.43 L100,281.43 Z" style="stroke-width: 1; stroke: rgb(0, 0, 0); fill: none; fill-opacity: 1;"/></g><g class="composite-shape"><path class="real" d=" M280.14,94.36 C280.14,84.97 287.75,77.36 297.14,77.36 C306.53,77.36 314.14,84.97 314.14,94.36 C314.14,103.75 306.53,111.36 297.14,111.36 C287.75,111.36 280.14,103.75 280.14,94.36 Z" style="stroke-width: 1; stroke: rgb(0, 0, 0); fill: rgb(155, 155, 155); fill-opacity: 1;"/></g><g class="composite-shape"><path class="real" d=" M289.84,281.13 C281.69,270.96 276.81,258.05 276.81,244 C276.81,211.17 303.42,184.56 336.25,184.56 C369.07,184.56 395.68,211.17 395.68,244 C395.68,258.17 390.72,271.19 382.44,281.4 Z" style="stroke-width: 1; stroke: rgb(0, 0, 0); fill: rgb(128, 128, 128); fill-opacity: 1;"/></g><g class="composite-shape"><path class="real" d=" M461.53,281.43 L437.71,26.58 L564.71,26.58 L564.71,281.43 Z" style="stroke-width: 1; stroke: rgb(0, 0, 0); fill: rgb(128, 128, 128); fill-opacity: 1;"/></g><g/></g><g/><g/><g/></svg>
        <svg xmlns="http://www.w3.org/2000/svg" xmlns:xlink="http://www.w3.org/1999/xlink" width="660" height="300" style="width:660px;height:300px;font-family:Asana-Math, Asana;background:#FFF;"></svg>
</svg>
