<svg xmlns="http://www.w3.org/2000/svg" xmlns:xlink="http://www.w3.org/1999/xlink" x="0" y="0" width="662" height="302" style="
        width:662px;
        height:302px;
        background: #FFF;
        fill: none;
">

        <svg xmlns="http://www.w3.org/2000/svg" class="role-diagram-draw-area"><g class="shapes-region" style="stroke: black; fill: none;"><g class="composite-shape"><path class="real" d=" M227.14,94.36 C227.14,68.12 248.41,46.86 274.64,46.86 C300.88,46.86 322.14,68.12 322.14,94.36 C322.14,120.59 300.88,141.86 274.64,141.86 C248.41,141.86 227.14,120.59 227.14,94.36 Z" style="stroke-width: 1; stroke: rgb(0, 0, 0); fill: rgb(155, 155, 155); fill-opacity: 1;"/></g><g class="composite-shape"><path class="real" d=" M100,26.43 L564.71,26.43 L564.71,281.43 L100,281.43 Z" style="stroke-width: 1; stroke: rgb(0, 0, 0); fill: none; fill-opacity: 1;"/></g><g class="composite-shape"><path class="real" d=" M322.14,94.36 C322.14,84.97 329.75,77.36 339.14,77.36 C348.53,77.36 356.14,84.97 356.14,94.36 C356.14,103.75 348.53,111.36 339.14,111.36 C329.75,111.36 322.14,103.75 322.14,94.36 Z" style="stroke-width: 1; stroke: rgb(0, 0, 0); fill: rgb(155, 155, 155); fill-opacity: 1;"/></g><g class="composite-shape"><path class="real" d=" M331.84,281.13 C323.69,270.96 318.81,258.05 318.81,244 C318.81,211.17 345.42,184.56 378.25,184.56 C411.07,184.56 437.68,211.17 437.68,244 C437.68,258.17 432.72,271.19 424.44,281.4 Z" style="stroke-width: 1; stroke: rgb(0, 0, 0); fill: rgb(128, 128, 128); fill-opacity: 1;"/></g><g class="composite-shape"><path class="real" d=" M461.53,281.43 L437.71,26.58 L564.71,26.58 L564.71,281.43 Z" style="stroke-width: 1; stroke: rgb(0, 0, 0); fill: rgb(128, 128, 128); fill-opacity: 1;"/></g><g class="composite-shape"><path class="real" d=" M203.19,26.58 L227,281.43 L100,281.43 L100,26.58 Z" style="stroke-width: 1; stroke: rgb(0, 0, 0); fill: rgb(128, 128, 128); fill-opacity: 1;"/></g><g class="composite-shape"><path class="real" d=" M299.14,168.36 C299.14,158.97 306.75,151.36 316.14,151.36 C325.53,151.36 333.14,158.97 333.14,168.36 C333.14,177.75 325.53,185.36 316.14,185.36 C306.75,185.36 299.14,177.75 299.14,168.36 Z" style="stroke-width: 1; stroke: rgb(0, 0, 0); fill: rgb(155, 155, 155); fill-opacity: 1;"/></g><g/></g><g/><g/><g/></svg>
        <svg xmlns="http://www.w3.org/2000/svg" xmlns:xlink="http://www.w3.org/1999/xlink" width="660" height="300" style="width:660px;height:300px;font-family:Asana-Math, Asana;background:#FFF;"></svg>
</svg>
